<mxfile host="app.diagrams.net" agent="Mozilla/5.0 (Macintosh; Intel Mac OS X 10_15_7) AppleWebKit/537.36 (KHTML, like Gecko) Chrome/135.0.0.0 Safari/537.36" version="26.2.13">
  <diagram name="Page-1" id="pk3G1-KpPuDyIC9iilom">
    <mxGraphModel dx="920" dy="1020" grid="1" gridSize="10" guides="1" tooltips="1" connect="1" arrows="1" fold="1" page="1" pageScale="1" pageWidth="850" pageHeight="1100" math="0" shadow="0">
      <root>
        <mxCell id="0" />
        <mxCell id="1" parent="0" />
        <mxCell id="0H24Pjq25jJJf35vTm5h-2" value="" style="rounded=0;whiteSpace=wrap;html=1;strokeColor=none;" vertex="1" parent="1">
          <mxGeometry x="40" width="1160" height="720" as="geometry" />
        </mxCell>
        <mxCell id="S8VtoatCuAtZkPCe1A8W-8" value="" style="rounded=1;whiteSpace=wrap;html=1;fillColor=none;dashed=1;strokeColor=#666666;direction=west;sketch=1;curveFitting=1;jiggle=2;shadow=1;dashPattern=8 8;fontFamily=Comic Sans MS;" parent="1" vertex="1">
          <mxGeometry x="320" y="70" width="610" height="620" as="geometry" />
        </mxCell>
        <mxCell id="S8VtoatCuAtZkPCe1A8W-10" value="" style="rounded=1;whiteSpace=wrap;html=1;fillColor=none;dashed=1;strokeColor=#666666;sketch=1;curveFitting=1;jiggle=2;shadow=1;dashPattern=8 8;fontFamily=Comic Sans MS;" parent="1" vertex="1">
          <mxGeometry x="1000" y="70" width="160" height="620" as="geometry" />
        </mxCell>
        <mxCell id="dRt8hzECVAXxvynWsnta-12" value="" style="rounded=0;whiteSpace=wrap;html=1;fillColor=#FFD966;strokeColor=#FFD966;shadow=1;fontFamily=Comic Sans MS;glass=0;sketch=1;curveFitting=1;jiggle=2;fillStyle=zigzag;opacity=30;strokeWidth=1.5;" parent="1" vertex="1">
          <mxGeometry x="750" y="180" width="150" height="480" as="geometry" />
        </mxCell>
        <mxCell id="dRt8hzECVAXxvynWsnta-11" value="" style="rounded=0;whiteSpace=wrap;html=1;fillColor=default;strokeColor=#9E9E9E;shadow=1;fontFamily=Comic Sans MS;glass=0;sketch=1;curveFitting=1;jiggle=2;fillStyle=zigzag;opacity=30;strokeWidth=1.5;" parent="1" vertex="1">
          <mxGeometry x="550" y="180" width="150" height="480" as="geometry" />
        </mxCell>
        <mxCell id="S8VtoatCuAtZkPCe1A8W-1" value="" style="rounded=1;whiteSpace=wrap;html=1;fillColor=none;dashed=1;strokeColor=#666666;sketch=1;curveFitting=1;jiggle=2;shadow=1;dashPattern=8 8;fontFamily=Comic Sans MS;" parent="1" vertex="1">
          <mxGeometry x="81" y="70" width="160" height="620" as="geometry" />
        </mxCell>
        <mxCell id="S8VtoatCuAtZkPCe1A8W-2" value="&lt;font style=&quot;font-size: 20px;&quot;&gt;Sources&lt;/font&gt;" style="rounded=1;whiteSpace=wrap;html=1;fillColor=default;strokeColor=none;align=center;sketch=1;curveFitting=1;jiggle=2;shadow=0;fontFamily=Comic Sans MS;glass=1;" parent="1" vertex="1">
          <mxGeometry x="101" y="50" width="120" height="50" as="geometry" />
        </mxCell>
        <mxCell id="S8VtoatCuAtZkPCe1A8W-9" value="&lt;font style=&quot;font-size: 20px;&quot;&gt;Data Warehouse&lt;/font&gt;" style="rounded=1;whiteSpace=wrap;html=1;fillColor=default;strokeColor=none;align=center;sketch=1;curveFitting=1;jiggle=2;shadow=0;fontFamily=Comic Sans MS;glass=1;" parent="1" vertex="1">
          <mxGeometry x="515" y="40" width="220" height="50" as="geometry" />
        </mxCell>
        <mxCell id="S8VtoatCuAtZkPCe1A8W-11" value="&lt;font style=&quot;font-size: 20px;&quot;&gt;Consume&lt;/font&gt;" style="rounded=1;whiteSpace=wrap;html=1;fillColor=default;strokeColor=none;align=center;sketch=1;curveFitting=1;jiggle=2;shadow=0;fontFamily=Comic Sans MS;glass=1;" parent="1" vertex="1">
          <mxGeometry x="1020" y="40" width="120" height="50" as="geometry" />
        </mxCell>
        <mxCell id="S8VtoatCuAtZkPCe1A8W-12" value="&lt;font style=&quot;font-size: 14px;&quot;&gt;&lt;b&gt;Bronze Layer&lt;/b&gt;&lt;/font&gt;" style="rounded=0;whiteSpace=wrap;html=1;fillColor=#FFB570;strokeColor=#d79b00;gradientColor=none;shadow=1;fontFamily=Comic Sans MS;glass=0;sketch=1;curveFitting=1;jiggle=2;" parent="1" vertex="1">
          <mxGeometry x="365" y="110" width="120" height="40" as="geometry" />
        </mxCell>
        <mxCell id="S8VtoatCuAtZkPCe1A8W-13" value="" style="rounded=0;whiteSpace=wrap;html=1;fillColor=#FFB570;strokeColor=#d79b00;shadow=1;fontFamily=Comic Sans MS;glass=0;fillStyle=zigzag;opacity=30;strokeWidth=1.5;sketch=1;curveFitting=1;jiggle=2;" parent="1" vertex="1">
          <mxGeometry x="350" y="180" width="150" height="480" as="geometry" />
        </mxCell>
        <mxCell id="S8VtoatCuAtZkPCe1A8W-14" value="&lt;font style=&quot;font-size: 14px;&quot;&gt;&lt;b&gt;Silver Layer&lt;/b&gt;&lt;/font&gt;" style="rounded=0;whiteSpace=wrap;html=1;fillColor=#CCCCCC;strokeColor=#666666;gradientDirection=south;fontColor=#333333;gradientColor=none;shadow=1;fontFamily=Comic Sans MS;glass=0;sketch=1;curveFitting=1;jiggle=2;" parent="1" vertex="1">
          <mxGeometry x="565" y="110" width="120" height="40" as="geometry" />
        </mxCell>
        <mxCell id="S8VtoatCuAtZkPCe1A8W-16" value="&lt;font style=&quot;font-size: 14px;&quot;&gt;Gold Layer&lt;/font&gt;" style="rounded=0;whiteSpace=wrap;html=1;fillColor=#FFD966;strokeColor=#d6b656;gradientColor=none;fontStyle=1;shadow=1;fontFamily=Comic Sans MS;glass=0;sketch=1;curveFitting=1;jiggle=2;" parent="1" vertex="1">
          <mxGeometry x="765" y="110" width="120" height="40" as="geometry" />
        </mxCell>
        <mxCell id="S8VtoatCuAtZkPCe1A8W-18" value="" style="html=1;verticalLabelPosition=bottom;align=center;labelBackgroundColor=#ffffff;verticalAlign=top;strokeWidth=2;strokeColor=#d79b00;shadow=1;dashed=0;shape=mxgraph.ios7.icons.data;fillColor=#ffe6cc;gradientColor=#FFD966;sketch=1;curveFitting=1;jiggle=2;fontFamily=Comic Sans MS;" parent="1" vertex="1">
          <mxGeometry x="404" y="250" width="42" height="50" as="geometry" />
        </mxCell>
        <mxCell id="S8VtoatCuAtZkPCe1A8W-19" value="" style="html=1;verticalLabelPosition=bottom;align=center;labelBackgroundColor=#ffffff;verticalAlign=top;strokeWidth=2;strokeColor=#666666;shadow=1;dashed=0;shape=mxgraph.ios7.icons.data;fillColor=#f5f5f5;fontColor=#333333;gradientColor=#CCCCCC;sketch=1;curveFitting=1;jiggle=2;fontFamily=Comic Sans MS;" parent="1" vertex="1">
          <mxGeometry x="604" y="250" width="42" height="50" as="geometry" />
        </mxCell>
        <mxCell id="S8VtoatCuAtZkPCe1A8W-20" value="" style="html=1;verticalLabelPosition=bottom;align=center;labelBackgroundColor=#ffffff;verticalAlign=top;strokeWidth=2;strokeColor=#d6b656;shadow=1;dashed=0;shape=mxgraph.ios7.icons.data;fillColor=#fff2cc;gradientColor=#FFD966;sketch=1;curveFitting=1;jiggle=2;fontFamily=Comic Sans MS;" parent="1" vertex="1">
          <mxGeometry x="804" y="250" width="42" height="50" as="geometry" />
        </mxCell>
        <mxCell id="S8VtoatCuAtZkPCe1A8W-21" value="Raw Data" style="rounded=0;whiteSpace=wrap;html=1;strokeColor=none;fillColor=none;sketch=1;curveFitting=1;jiggle=2;shadow=1;fontFamily=Comic Sans MS;" parent="1" vertex="1">
          <mxGeometry x="370" y="310" width="110" height="40" as="geometry" />
        </mxCell>
        <mxCell id="S8VtoatCuAtZkPCe1A8W-22" value="Cleaned , Standardized data" style="rounded=0;whiteSpace=wrap;html=1;strokeColor=none;fillColor=none;sketch=1;curveFitting=1;jiggle=2;shadow=1;fontFamily=Comic Sans MS;" parent="1" vertex="1">
          <mxGeometry x="570" y="310" width="110" height="40" as="geometry" />
        </mxCell>
        <mxCell id="S8VtoatCuAtZkPCe1A8W-23" value="Bussiness - Ready Data" style="rounded=0;whiteSpace=wrap;html=1;strokeColor=none;fillColor=none;sketch=1;curveFitting=1;jiggle=2;shadow=1;fontFamily=Comic Sans MS;" parent="1" vertex="1">
          <mxGeometry x="770" y="310" width="110" height="40" as="geometry" />
        </mxCell>
        <mxCell id="S8VtoatCuAtZkPCe1A8W-24" value="" style="image;aspect=fixed;html=1;points=[];align=center;fontSize=12;image=img/lib/azure2/general/Folder_Blank.svg;shadow=1;fontFamily=Comic Sans MS;sketch=1;curveFitting=1;jiggle=2;" parent="1" vertex="1">
          <mxGeometry x="126.5" y="132" width="69" height="56.00000000000001" as="geometry" />
        </mxCell>
        <mxCell id="S8VtoatCuAtZkPCe1A8W-25" value="" style="shape=image;html=1;verticalAlign=top;verticalLabelPosition=bottom;labelBackgroundColor=#ffffff;imageAspect=0;aspect=fixed;image=https://cdn4.iconfinder.com/data/icons/48-bubbles/48/12.File-128.png;shadow=1;imageBorder=none;imageBackground=none;sketch=1;curveFitting=1;jiggle=2;fontFamily=Comic Sans MS;" parent="1" vertex="1">
          <mxGeometry x="176.5" y="170" width="38" height="38" as="geometry" />
        </mxCell>
        <mxCell id="S8VtoatCuAtZkPCe1A8W-30" value="" style="image;aspect=fixed;html=1;points=[];align=center;fontSize=12;image=img/lib/azure2/general/Folder_Blank.svg;shadow=1;fontFamily=Comic Sans MS;sketch=1;curveFitting=1;jiggle=2;" parent="1" vertex="1">
          <mxGeometry x="126.5" y="234" width="69" height="56.00000000000001" as="geometry" />
        </mxCell>
        <mxCell id="S8VtoatCuAtZkPCe1A8W-32" value="" style="shape=image;html=1;verticalAlign=top;verticalLabelPosition=bottom;labelBackgroundColor=#ffffff;imageAspect=0;aspect=fixed;image=https://cdn4.iconfinder.com/data/icons/48-bubbles/48/12.File-128.png;shadow=1;imageBorder=none;imageBackground=none;sketch=1;curveFitting=1;jiggle=2;fontFamily=Comic Sans MS;" parent="1" vertex="1">
          <mxGeometry x="176.5" y="272" width="38" height="38" as="geometry" />
        </mxCell>
        <mxCell id="S8VtoatCuAtZkPCe1A8W-34" value="CRM" style="dashed=0;html=1;fillColor=none;strokeColor=none;align=center;rounded=1;arcSize=10;fontColor=#596780;fontStyle=1;fontSize=11;shadow=1;sketch=1;curveFitting=1;jiggle=2;fontFamily=Comic Sans MS;" parent="1" vertex="1">
          <mxGeometry x="126.5" y="150" width="60" height="20" as="geometry" />
        </mxCell>
        <mxCell id="S8VtoatCuAtZkPCe1A8W-35" value="ERP" style="dashed=0;html=1;fillColor=none;strokeColor=none;align=center;rounded=1;arcSize=10;fontColor=#596780;fontStyle=1;fontSize=11;shadow=1;sketch=1;curveFitting=1;jiggle=2;fontFamily=Comic Sans MS;" parent="1" vertex="1">
          <mxGeometry x="126.5" y="250" width="60" height="20" as="geometry" />
        </mxCell>
        <mxCell id="S8VtoatCuAtZkPCe1A8W-36" value="&lt;b&gt;Object Type:&lt;/b&gt; CSV Files&lt;div&gt;&lt;br&gt;&lt;div style=&quot;&quot;&gt;&lt;b&gt;Interface&lt;/b&gt;: Files in Folders&lt;/div&gt;&lt;/div&gt;" style="rounded=0;whiteSpace=wrap;html=1;strokeColor=none;fillColor=none;align=left;sketch=1;curveFitting=1;jiggle=2;shadow=1;fontFamily=Comic Sans MS;" parent="1" vertex="1">
          <mxGeometry x="90" y="362" width="146" height="60" as="geometry" />
        </mxCell>
        <mxCell id="S8VtoatCuAtZkPCe1A8W-41" value="" style="image;aspect=fixed;html=1;points=[];align=center;fontSize=12;image=img/lib/azure2/analytics/Power_BI_Embedded.svg;shadow=1;fontFamily=Comic Sans MS;sketch=1;curveFitting=1;jiggle=2;" parent="1" vertex="1">
          <mxGeometry x="1050.4" y="150" width="35.5" height="47.33" as="geometry" />
        </mxCell>
        <mxCell id="S8VtoatCuAtZkPCe1A8W-42" value="" style="html=1;aspect=fixed;strokeColor=none;shadow=1;fillColor=#3B8DF1;verticalAlign=top;labelPosition=center;verticalLabelPosition=bottom;shape=mxgraph.gcp2.big_query;fontFamily=Comic Sans MS;fillStyle=solid;" parent="1" vertex="1">
          <mxGeometry x="1050.4" y="330" width="49.5" height="50" as="geometry" />
        </mxCell>
        <mxCell id="S8VtoatCuAtZkPCe1A8W-43" value="" style="points=[];aspect=fixed;html=1;align=center;shadow=1;dashed=0;fillColor=#FF6A00;strokeColor=none;shape=mxgraph.alibaba_cloud.machine_learning;fontFamily=Comic Sans MS;fillStyle=solid;gradientColor=none;" parent="1" vertex="1">
          <mxGeometry x="1055.1" y="510" width="49.8" height="50.099999999999994" as="geometry" />
        </mxCell>
        <mxCell id="S8VtoatCuAtZkPCe1A8W-44" value="BI &amp;amp; Reporting" style="rounded=1;whiteSpace=wrap;html=1;strokeColor=none;sketch=1;curveFitting=1;jiggle=2;shadow=0;fontFamily=Comic Sans MS;glass=0;" parent="1" vertex="1">
          <mxGeometry x="1030" y="208" width="110" height="40" as="geometry" />
        </mxCell>
        <mxCell id="S8VtoatCuAtZkPCe1A8W-45" value="Ad-Hoc SQL Queries" style="rounded=1;whiteSpace=wrap;html=1;strokeColor=none;sketch=1;curveFitting=1;jiggle=2;shadow=0;fontFamily=Comic Sans MS;glass=0;" parent="1" vertex="1">
          <mxGeometry x="1025" y="390" width="110" height="32" as="geometry" />
        </mxCell>
        <mxCell id="S8VtoatCuAtZkPCe1A8W-46" value="Machine Learning" style="rounded=1;whiteSpace=wrap;html=1;strokeColor=none;sketch=1;curveFitting=1;jiggle=2;shadow=0;fontFamily=Comic Sans MS;glass=0;" parent="1" vertex="1">
          <mxGeometry x="1030" y="570" width="110" height="20" as="geometry" />
        </mxCell>
        <mxCell id="dRt8hzECVAXxvynWsnta-6" value="" style="shape=flexArrow;endArrow=classic;html=1;rounded=0;endWidth=32;endSize=8.67;width=14;fillColor=#dae8fc;strokeColor=#6c8ebf;gradientColor=#7EA6E0;gradientDirection=east;sketch=1;curveFitting=1;jiggle=2;shadow=1;fontFamily=Comic Sans MS;" parent="1" edge="1">
          <mxGeometry width="50" height="50" relative="1" as="geometry">
            <mxPoint x="475" y="272" as="sourcePoint" />
            <mxPoint x="555" y="272" as="targetPoint" />
          </mxGeometry>
        </mxCell>
        <mxCell id="dRt8hzECVAXxvynWsnta-7" value="" style="shape=flexArrow;endArrow=classic;html=1;rounded=0;endWidth=32;endSize=8.67;width=14;fillColor=#dae8fc;strokeColor=#6c8ebf;gradientColor=#7EA6E0;gradientDirection=east;sketch=1;curveFitting=1;jiggle=2;shadow=1;fontFamily=Comic Sans MS;" parent="1" edge="1">
          <mxGeometry width="50" height="50" relative="1" as="geometry">
            <mxPoint x="690" y="272" as="sourcePoint" />
            <mxPoint x="770" y="272" as="targetPoint" />
          </mxGeometry>
        </mxCell>
        <mxCell id="dRt8hzECVAXxvynWsnta-8" value="" style="shape=flexArrow;endArrow=classic;html=1;rounded=0;endWidth=32;endSize=13.03;width=22;entryX=0.063;entryY=0.322;entryDx=0;entryDy=0;entryPerimeter=0;fillColor=#dae8fc;strokeColor=#6c8ebf;gradientColor=#7EA6E0;gradientDirection=east;sketch=1;curveFitting=1;jiggle=2;shadow=1;fontFamily=Comic Sans MS;" parent="1" edge="1">
          <mxGeometry width="50" height="50" relative="1" as="geometry">
            <mxPoint x="900" y="273.03999999999996" as="sourcePoint" />
            <mxPoint x="1040.08" y="272" as="targetPoint" />
          </mxGeometry>
        </mxCell>
        <mxCell id="dRt8hzECVAXxvynWsnta-9" value="" style="shape=flexArrow;endArrow=classic;html=1;rounded=0;endWidth=32;endSize=13.32;width=15;fillColor=#dae8fc;strokeColor=#6c8ebf;gradientColor=#7EA6E0;gradientDirection=east;sketch=1;curveFitting=1;jiggle=2;shadow=1;fontFamily=Comic Sans MS;" parent="1" edge="1">
          <mxGeometry width="50" height="50" relative="1" as="geometry">
            <mxPoint x="230" y="274.5" as="sourcePoint" />
            <mxPoint x="330" y="274.5" as="targetPoint" />
          </mxGeometry>
        </mxCell>
        <mxCell id="dRt8hzECVAXxvynWsnta-10" value="&lt;b&gt;Object Type:&lt;/b&gt; Tables&lt;div&gt;&lt;br&gt;&lt;div&gt;&lt;b&gt;Load&lt;/b&gt;:&lt;/div&gt;&lt;div&gt;&lt;br&gt;&lt;/div&gt;&lt;div&gt;&lt;ul&gt;&lt;li&gt;Batch processing&lt;/li&gt;&lt;li&gt;Full load&lt;/li&gt;&lt;li&gt;Tuncate &amp;amp; Insert&lt;/li&gt;&lt;/ul&gt;&lt;/div&gt;&lt;div&gt;&lt;br&gt;&lt;/div&gt;&lt;div&gt;NO&lt;b&gt; Transformations&lt;/b&gt;&lt;/div&gt;&lt;div&gt;&lt;b&gt;&lt;br&gt;&lt;/b&gt;&lt;/div&gt;&lt;div&gt;&lt;b&gt;Data Model: &lt;/b&gt;None&lt;b&gt;&amp;nbsp;&lt;/b&gt;&lt;/div&gt;&lt;/div&gt;" style="rounded=0;whiteSpace=wrap;html=1;strokeColor=none;fillColor=none;align=left;sketch=1;curveFitting=1;jiggle=2;shadow=1;fontFamily=Comic Sans MS;" parent="1" vertex="1">
          <mxGeometry x="355" y="370" width="140" height="180" as="geometry" />
        </mxCell>
        <mxCell id="dRt8hzECVAXxvynWsnta-13" value="&lt;b&gt;Object Type:&lt;/b&gt;&amp;nbsp;Tables&lt;span style=&quot;color: rgba(0, 0, 0, 0); font-size: 0px; text-wrap-mode: nowrap;&quot;&gt;%3CmxGraphModel%3E%3Croot%3E%3CmxCell%20id%3D%220%22%2F%3E%3CmxCell%20id%3D%221%22%20parent%3D%220%22%2F%3E%3CmxCell%20id%3D%222%22%20value%3D%22%26lt%3Bb%26gt%3BObject%20Type%3A%26lt%3B%2Fb%26gt%3B%20Tables%26lt%3Bdiv%26gt%3B%26lt%3Bbr%26gt%3B%26lt%3Bdiv%26gt%3B%26lt%3Bb%26gt%3BLoad%26lt%3B%2Fb%26gt%3B%3A%26lt%3B%2Fdiv%26gt%3B%26lt%3Bdiv%26gt%3B%26lt%3Bbr%26gt%3B%26lt%3B%2Fdiv%26gt%3B%26lt%3Bdiv%26gt%3B%26lt%3Bul%26gt%3B%26lt%3Bli%26gt%3BBatch%20processing%26lt%3B%2Fli%26gt%3B%26lt%3Bli%26gt%3BFull%20load%26lt%3B%2Fli%26gt%3B%26lt%3Bli%26gt%3BTuncate%20%26amp%3Bamp%3B%20Insert%26lt%3B%2Fli%26gt%3B%26lt%3B%2Ful%26gt%3B%26lt%3B%2Fdiv%26gt%3B%26lt%3Bdiv%26gt%3B%26lt%3Bbr%26gt%3B%26lt%3B%2Fdiv%26gt%3B%26lt%3Bdiv%26gt%3B%26lt%3Bb%26gt%3BTransformations%3A%26lt%3B%2Fb%26gt%3B%26lt%3B%2Fdiv%26gt%3B%26lt%3Bdiv%26gt%3B%26lt%3Bul%26gt%3B%26lt%3Bli%26gt%3BData%20Cleansing%26lt%3B%2Fli%26gt%3B%26lt%3Bli%26gt%3BData%20Standardization%26lt%3B%2Fli%26gt%3B%26lt%3Bli%26gt%3BData%20Normalization%26lt%3B%2Fli%26gt%3B%26lt%3Bli%26gt%3BData%20Columns%26lt%3B%2Fli%26gt%3B%26lt%3Bli%26gt%3BData%20Enrichment%26lt%3B%2Fli%26gt%3B%26lt%3B%2Ful%26gt%3B%26lt%3B%2Fdiv%26gt%3B%26lt%3Bdiv%26gt%3B%26lt%3Bbr%26gt%3B%26lt%3B%2Fdiv%26gt%3B%26lt%3B%2Fdiv%26gt%3B%22%20style%3D%22rounded%3D0%3BwhiteSpace%3Dwrap%3Bhtml%3D1%3BstrokeColor%3Dnone%3BfillColor%3Dnone%3Balign%3Dleft%3B%22%20vertex%3D%221%22%20parent%3D%221%22%3E%3CmxGeometry%20x%3D%22360%22%20y%3D%22360%22%20width%3D%22140%22%20height%3D%22280%22%20as%3D%22geometry%22%2F%3E%3C%2FmxCell%3E%3C%2Froot%3E%3C%2FmxGraphModel%3E&lt;/span&gt;&lt;div&gt;&lt;br&gt;&lt;div&gt;&lt;b&gt;Load&lt;/b&gt;:&lt;/div&gt;&lt;div&gt;&lt;ul&gt;&lt;li&gt;Batch processing&lt;/li&gt;&lt;li&gt;Full load&lt;/li&gt;&lt;li&gt;Tuncate &amp;amp; Insert&lt;/li&gt;&lt;/ul&gt;&lt;/div&gt;&lt;div&gt;&lt;br&gt;&lt;/div&gt;&lt;div&gt;&lt;b&gt;Transformations:&lt;/b&gt;&lt;/div&gt;&lt;div&gt;&lt;ul&gt;&lt;li&gt;Data Cleansing&lt;/li&gt;&lt;li&gt;Data Standardization&lt;/li&gt;&lt;li&gt;Data Normalization&lt;/li&gt;&lt;li&gt;Data Columns&lt;/li&gt;&lt;li&gt;Data Enrichment&lt;/li&gt;&lt;/ul&gt;&lt;/div&gt;&lt;div&gt;&lt;b&gt;Data Model &lt;/b&gt;: None&lt;/div&gt;&lt;/div&gt;" style="rounded=0;whiteSpace=wrap;html=1;strokeColor=none;fillColor=none;align=left;sketch=1;curveFitting=1;jiggle=2;shadow=1;fontFamily=Comic Sans MS;" parent="1" vertex="1">
          <mxGeometry x="555" y="370" width="140" height="280" as="geometry" />
        </mxCell>
        <mxCell id="dRt8hzECVAXxvynWsnta-14" value="&lt;b&gt;Object Type:&lt;/b&gt;&amp;nbsp;Views&lt;span style=&quot;color: rgba(0, 0, 0, 0); font-size: 0px; text-wrap-mode: nowrap;&quot;&gt;%3CmxGraphModel%3E%3Croot%3E%3CmxCell%20id%3D%220%22%2F%3E%3CmxCell%20id%3D%221%22%20parent%3D%220%22%2F%3E%3CmxCell%20id%3D%222%22%20value%3D%22%26lt%3Bb%26gt%3BObject%20Type%3A%26lt%3B%2Fb%26gt%3B%20Tables%26lt%3Bdiv%26gt%3B%26lt%3Bbr%26gt%3B%26lt%3Bdiv%26gt%3B%26lt%3Bb%26gt%3BLoad%26lt%3B%2Fb%26gt%3B%3A%26lt%3B%2Fdiv%26gt%3B%26lt%3Bdiv%26gt%3B%26lt%3Bbr%26gt%3B%26lt%3B%2Fdiv%26gt%3B%26lt%3Bdiv%26gt%3B%26lt%3Bul%26gt%3B%26lt%3Bli%26gt%3BBatch%20processing%26lt%3B%2Fli%26gt%3B%26lt%3Bli%26gt%3BFull%20load%26lt%3B%2Fli%26gt%3B%26lt%3Bli%26gt%3BTuncate%20%26amp%3Bamp%3B%20Insert%26lt%3B%2Fli%26gt%3B%26lt%3B%2Ful%26gt%3B%26lt%3B%2Fdiv%26gt%3B%26lt%3Bdiv%26gt%3B%26lt%3Bbr%26gt%3B%26lt%3B%2Fdiv%26gt%3B%26lt%3Bdiv%26gt%3B%26lt%3Bb%26gt%3BTransformations%3A%26lt%3B%2Fb%26gt%3B%26lt%3B%2Fdiv%26gt%3B%26lt%3Bdiv%26gt%3B%26lt%3Bul%26gt%3B%26lt%3Bli%26gt%3BData%20Cleansing%26lt%3B%2Fli%26gt%3B%26lt%3Bli%26gt%3BData%20Standardization%26lt%3B%2Fli%26gt%3B%26lt%3Bli%26gt%3BData%20Normalization%26lt%3B%2Fli%26gt%3B%26lt%3Bli%26gt%3BData%20Columns%26lt%3B%2Fli%26gt%3B%26lt%3Bli%26gt%3BData%20Enrichment%26lt%3B%2Fli%26gt%3B%26lt%3B%2Ful%26gt%3B%26lt%3B%2Fdiv%26gt%3B%26lt%3Bdiv%26gt%3B%26lt%3Bbr%26gt%3B%26lt%3B%2Fdiv%26gt%3B%26lt%3B%2Fdiv%26gt%3B%22%20style%3D%22rounded%3D0%3BwhiteSpace%3Dwrap%3Bhtml%3D1%3BstrokeColor%3Dnone%3BfillColor%3Dnone%3Balign%3Dleft%3B%22%20vertex%3D%221%22%20parent%3D%221%22%3E%3CmxGeometry%20x%3D%22360%22%20y%3D%22360%22%20width%3D%22140%22%20height%3D%22280%22%20as%3D%22geometry%22%2F%3E%3C%2FmxCell%3E%3C%2Froot%3E%3C%2FmxGraphModel%3E&lt;/span&gt;&lt;div&gt;&lt;br&gt;&lt;div&gt;&lt;b&gt;&amp;nbsp;NO Load&lt;/b&gt;&lt;/div&gt;&lt;div&gt;&lt;br&gt;&lt;/div&gt;&lt;div&gt;&lt;b&gt;Transformations:&lt;/b&gt;&lt;/div&gt;&lt;div&gt;&lt;ul&gt;&lt;li&gt;Data integrations&lt;/li&gt;&lt;li&gt;Aggregations&lt;/li&gt;&lt;li&gt;Bussines Logic&lt;/li&gt;&lt;/ul&gt;&lt;div&gt;&lt;b&gt;Data Model:&amp;nbsp;&lt;/b&gt;&lt;/div&gt;&lt;/div&gt;&lt;div&gt;&lt;ul&gt;&lt;li&gt;Star Schema&lt;/li&gt;&lt;li&gt;Flat Table&lt;/li&gt;&lt;li&gt;Aggregated Table&lt;/li&gt;&lt;/ul&gt;&lt;/div&gt;&lt;div&gt;&lt;br&gt;&lt;/div&gt;&lt;/div&gt;" style="rounded=0;whiteSpace=wrap;html=1;strokeColor=none;fillColor=none;align=left;sketch=1;curveFitting=1;jiggle=2;shadow=1;fontFamily=Comic Sans MS;" parent="1" vertex="1">
          <mxGeometry x="755" y="350" width="140" height="270" as="geometry" />
        </mxCell>
        <mxCell id="dRt8hzECVAXxvynWsnta-18" style="edgeStyle=orthogonalEdgeStyle;rounded=0;orthogonalLoop=1;jettySize=auto;html=1;exitX=0.5;exitY=1;exitDx=0;exitDy=0;sketch=1;curveFitting=1;jiggle=2;shadow=1;fontFamily=Comic Sans MS;" parent="1" source="dRt8hzECVAXxvynWsnta-11" target="dRt8hzECVAXxvynWsnta-11" edge="1">
          <mxGeometry relative="1" as="geometry" />
        </mxCell>
        <mxCell id="dRt8hzECVAXxvynWsnta-19" value="" style="pointerEvents=1;shadow=1;dashed=0;html=1;strokeColor=none;fillColor=#005F4B;labelPosition=center;verticalLabelPosition=bottom;verticalAlign=top;align=center;outlineConnect=0;shape=mxgraph.veeam2.sql_server;fontFamily=Comic Sans MS;" parent="1" vertex="1">
          <mxGeometry x="325" y="47" width="40" height="46" as="geometry" />
        </mxCell>
        <mxCell id="dRt8hzECVAXxvynWsnta-20" value="SQL Server" style="rounded=0;whiteSpace=wrap;html=1;strokeColor=none;fillColor=none;sketch=1;curveFitting=1;jiggle=2;shadow=1;fontFamily=Comic Sans MS;" parent="1" vertex="1">
          <mxGeometry x="350" y="36" width="110" height="40" as="geometry" />
        </mxCell>
        <mxCell id="dRt8hzECVAXxvynWsnta-22" value="" style="verticalLabelPosition=bottom;aspect=fixed;html=1;verticalAlign=top;strokeColor=none;align=center;outlineConnect=0;shape=mxgraph.citrix.reporting;shadow=1;fontFamily=Comic Sans MS;gradientColor=none;" parent="1" vertex="1">
          <mxGeometry x="1090" y="157.32999999999998" width="35.65" height="40" as="geometry" />
        </mxCell>
        <mxCell id="0H24Pjq25jJJf35vTm5h-3" value="&lt;font style=&quot;font-size: 24px;&quot;&gt;High Level Architecture&lt;/font&gt;" style="rounded=1;whiteSpace=wrap;html=1;fillColor=default;strokeColor=none;align=center;sketch=1;curveFitting=1;jiggle=2;shadow=0;fontFamily=Comic Sans MS;glass=1;" vertex="1" parent="1">
          <mxGeometry x="435" y="10" width="370" height="18" as="geometry" />
        </mxCell>
        <mxCell id="0H24Pjq25jJJf35vTm5h-4" value="" style="endArrow=none;html=1;rounded=0;" edge="1" parent="1">
          <mxGeometry width="50" height="50" relative="1" as="geometry">
            <mxPoint x="80" y="39" as="sourcePoint" />
            <mxPoint x="1160" y="39" as="targetPoint" />
          </mxGeometry>
        </mxCell>
      </root>
    </mxGraphModel>
  </diagram>
</mxfile>
